<svg width="24" height="24" viewBox="0 0 24 24" fill="none" xmlns="http://www.w3.org/2000/svg">
<g clip-path="url(#clip0_841_376)">
<path d="M12 24C18.6274 24 24 18.6274 24 12C24 5.37258 18.6274 0 12 0C5.37258 0 0 5.37258 0 12C0 18.6274 5.37258 24 12 24Z" fill="#F0F0F0"/>
<path d="M24.0004 12.0007C24.0004 7.24341 21.2318 3.13274 17.2178 1.19141V22.8101C21.2318 20.8687 24.0004 16.7581 24.0004 12.0007Z" fill="#D80027"/>
<path fill-rule="evenodd" clip-rule="evenodd" d="M6.78267 22.8101C2.76867 20.8687 0 16.7581 0 12.0007C0 7.24341 2.76867 3.13274 6.78267 1.19141V22.8101ZM12 15.1314C10.2707 15.1314 8.86933 13.7294 8.86933 12.0007H8.864V10.9574H15.1307V12.0007C15.1307 13.7301 13.7293 15.1314 12 15.1314Z" fill="#6DA544"/>
<path d="M16.1738 9.91248H13.0431C13.0431 9.33647 12.5765 8.86914 11.9998 8.86914C11.4231 8.86914 10.9565 9.33581 10.9565 9.91248H7.82715C7.82715 10.4885 8.32915 10.9558 8.90515 10.9558H8.87048C8.87048 11.5318 9.33715 11.9991 9.91381 11.9991C9.91381 12.5751 10.3805 13.0425 10.9571 13.0425H13.0438C13.6198 13.0425 14.0871 12.5758 14.0871 11.9991C14.6631 11.9991 15.1305 11.5325 15.1305 10.9558H15.0958C15.6718 10.9558 16.1738 10.4891 16.1738 9.91248Z" fill="#FF9811"/>
</g>
<defs>
<clipPath id="clip0_841_376">
<rect width="24" height="24" fill="white"/>
</clipPath>
</defs>
</svg>
