<svg width="1920" height="1225" viewBox="0 0 1920 1225" fill="none" xmlns="http://www.w3.org/2000/svg">
<g clip-path="url(#clip0_5926_286621)">
<rect width="1920" height="1292" fill="#062763"/>
<path d="M1813 488C1850.56 488 1881 518.445 1881 556C1881 593.555 1850.56 624 1813 624C1775.44 624 1745 593.555 1745 556C1745 518.445 1775.44 488 1813 488Z" fill="#0D3989"/>
<rect x="-105.677" y="345.999" width="1462.93" height="789.433" rx="394.716" transform="rotate(45.4199 -105.677 345.999)" fill="#082B6C"/>
<rect x="292.373" y="442.355" width="530.953" height="374.053" rx="187.026" transform="rotate(45.4199 292.373 442.355)" fill="#033288"/>
<rect x="1501.04" y="677" width="244.348" height="244.348" rx="122.174" transform="rotate(45.4199 1501.04 677)" fill="#082B6C"/>
<path d="M1652.56 119C1739.82 119 1810 189.181 1810 276.442C1810 363.703 1739.82 435 1652.56 435C1565.3 435 1494 363.703 1494 276.442C1494 189.181 1565.3 119 1652.56 119Z" fill="#033288"/>
</g>
<defs>
<clipPath id="clip0_5926_286621">
<rect width="1920" height="1225" fill="white" transform="matrix(1 0 0 -1 0 1225)"/>
</clipPath>
</defs>
</svg>
